<?xml version="1.0" encoding="UTF-8"?>
<svg version="1.1" viewBox="0 0 900 900" width="1280" height="1280" xmlns="http://www.w3.org/2000/svg">
<path transform="translate(0)" d="m0 0h900v900h-900z" fill="#111111"/>
<path transform="translate(165,159)" d="m0 0h14l20 3 26 7 19 7 20 9 16 9 15 10 13 10 10 9 17 17 9 11 13 18 13 21 14 27 8 20 5 18 2 12 2 25 1 3h2v-2l3-1 2-12 11-30 6-22 2-13 1-16-1-15-4-14-7-13-5-5-5-4-5-2h-5l-5 4-4 7-1 3v11l4 7 6 4h6l4-4v-9l-5-5-3-2v-2h5l7 6 1 3v9l-5 6-4 2h-7l-6-3-6-7-2-6v-7l3-11 4-6h2v-2l4-2h9l7 3 9 8 7 12 4 11 2 15v14l-2 18-4 17-8 26-7 18-1 9 4-4 5-10 6-13 7-14 9-14 9-13 12-13 9-8 11-7 13-5 4-1h19l7 4 5 6 1 2v7l-4 10-7 8-9 4h-8l-8-4-4-7 1-8 5-6 4-2 7 1 5 3 1 2-6-1-7-1-6 7 1 6 4 4 2 1h11l7-5 5-8 1-3v-8l-4-5-8-3h-14l-15 5-10 6-7 6h-2v2h-2l-2 4-9 10-10 15-9 15-15 31-5 8 1 2 4-1 11-9 10-8 13-8 16-8 22-8 27-7 27-5 18-2h39l18 2 23 5 20 6 20 8 24 12 18 12 14 11 9 9 6 10 1 3v8l-6 9-10 6-16 4-23 2-19 4-16 7-11 9-11 12-7 8-9 11-5 6-8 7-9 6-13 4-42 5-8-1 5 15 1 14-1 12-6 16-6 10-10 12-10 17-6 8-11 7-18 5h-17l-12-1-5 5-3 8 1 15 4 15v9l-4 8-7 5-3 1h-7l-5-3-2-2v-11l5-19 6-21 1-11-4-9-5-5-8-6-13-5-8-6-5-10-2-14v-10l4-43v-60l-1-22-3 9-8 20-6 11-8 14-4 8-4 19-3 26v49l1 31-1 16-4 19-4 10-7 10-5 6-14 11-16 9-21 8-13 4 1 4 10 18 8 17 5 21v12l-4 16-8 18-13 19-11 14-12 14-13 15h-69l1-18 2-29 4-34 5-23 5-15 7-14 9-11 12-9 15-7 23-7 15-3-8-16-8-20-4-16-1-7v-16l2-13 4-9 7-12 9-11 16-16 11-9 26-24 9-9 7-8 9-10 8-11 4-5 5-11 10-32 8-18 7-12-1-1-15 16-8 7-10 9-21 21-7 8-9 9-11 14-7 8h-2l-2 4-12 9-12 6h-8l-12-5-10-4h-14l-8 3-6 7-12 21-8 13-8 9-6 2-6-3-4-5-2-6 1-10 7-8 8-5 11-6 6-5 6-10 1-5-7-8-10-8-7-9-7-14-2-7v-9l6-24 3-21 4-11 5-10 8-11 12-9 9-4h3l-3-5-10-14-12-15-7-11-4-10-1-5v-23l2-21 1-5v-25l-5-16-7-13-13-17-10-13-6-12-1-4v-9l4-8 5-4 6-3z" fill="#FFFFFF"/>
<path transform="translate(164,163)" d="m0 0h19l14 2 20 5 16 5 21 9 16 8 15 9 16 12 13 11 18 18 11 14 14 19 12 20 12 23 8 20 4 14 2 9 1 9v22l-11-3-11-4-6-4-18-18-7-8-9-10-19-19-10-7-16-10-10-13-7-10-4-11v-12l3-12 6-7 3-1h9l9 3 24 16 11 9 10 11 9 15 12 23 10 21 8 21 7 24 1 2-2-11-4-15-7-20-11-24-8-16-9-17-11-14-9-8-17-12-10-6-9-4-15-1-8 7-5 16v12l3 5-4-2-9-10-2-3 6-12 9-10 11-13 2-7-1-8-6-8-10-8-15-9-16-8-13-3-7 2-3 6 2 9 5 8 8 5 25 8 9 8 1 6-4 7-5 5-8-1-16-8-5-2-9 1-5 6-1 3v9l4 7 10 5 20 3 9 3 2 3v7l4 8 7 7-2 2-21-7-12-1-9 2-5 5-1 3v12l5 9 8 5 28 3 7 3 3 3v5l-5 5-8 5-16 8-2 2 1 7 7 5 20 4 5 3 2 6-3 4-33 3-7 1-6-7-14-19-9-11-8-14-2-10v-20l3-26v-25l-4-16-7-14-10-13-11-14-7-11-2-6v-11l4-6 7-4z" fill="#111111"/>
<path transform="translate(287,387)" d="m0 0h21l21 3 20 5 17 7 13 8 7 8 4 9-4 4-4 9-11 11-8 7-16 16-8 7-10 10-7 8-9 9-9 11-12 14-8 8-14 9-2 1h-11l-15-7-4-1h-16l-8 2-5 5-7 10-11 20-10 14-3 2h-6l-4-6-1-3v-7l3-5 7-6 17-9 8-9 4-9v-6l-9-10-10-8-7-10-6-13-1-4v-10l6-21 2-17 5-15 6-11 11-12 9-6 7-3 27-1 6-2 4 1-9 5-24 5-12 6-3 3 1 6 9 10-2 4-10 7-5 5-1 10 2 6 1 1 7-1 10-5 9-2 13 3 4 3v2l-21 11-9 8-3 5-1 6 3 7 4 3 3 1h8l10-6 9-11 9-6h7l3 8v11l-8 10-5 10-1 9 4 6 12 5 8-1 8-6 7-7 9-11 9-10 9-9 7-8 3-3h2l1-3 8-7 17-17 5-8 2-8 8-5h2v-12l-1-4-6-1-11-5-17-5-20-4-7-1h-50l-15 3-12 6-7 8-1 4v8l6 7 9 5 6 2h22l19-5 15-6 16-5 18-4 20-3h12l2 2v6l-3 4h-7l-10-3h-17l-21 5-16 6-13 7-10 8-3 5v7l3 4h14l12-6 11-7 17-8 26-9 3-1 2 1-2 6-12 13-12 11-25 25-7 8-9 10-9 11-8 6-7 1-10-4-4-6 1-6 6-10 8-9 12-3 12-7 10-9 2-3v-6l-6 1-15 10-10 8-4 2-5-15-1-2h-8l-11 6-8 11-7 5-10 1-5-3-1-1v-9l5-7 10-7 17-9 1-3-2-5-6-2-7-2h-11l-10 4-5 3-5-1v-10l6-7 11-7v-6l-9-12 2-4 8-4 15-4 12-3 18-9h14l29 5 25 6 24 6 13 5 5 5v-5l-10-5-21-6-45-10-20-3 2-2z" fill="#111111"/>
<path transform="translate(569,346)" d="m0 0h29l22 2 24 5 27 9 24 11 19 11 18 13 12 11 7 10 1 3v8l-7 8-4 3-9 3-26 4-18 2-16 5-10 6-10 8-12 13-9 11-12 14-13 10-11 4-16 3-27 2-11 2-7-10-9-12-9-11v-3l5-3h6l8 6 8 5 3 1h9l4-2-1-8-6-16v-14l5-3 5 1 9 6 8 7 5 5 7 4h9l9-3 6-5 3-6-1-9-7-8-10-7-16-8v-2l16-2 7-3 3-3 5 1 11 8 9 7 7 3h10l6-3 5-8v-7l-3-5-8-4-16-6-5-4-2-5 1-5 4-6 5-3 10 1 28 14h9l9-4 5-5v-7l-5-5-15-8-18-6-19-3-14 1-5 3-3 5-2 13-3 24-4 8-3 2h-14l2-4 8-7 7-11 3-10-5-9-6-5-13-5-25-5-6-1h-24l-23 5-35 11-21 9-19 10-10 7-6-1 1-4 14-12 15-10 16-8 17-7 16-5 15-4 25-5z" fill="#111111"/>
<path transform="translate(262,733)" d="m0 0 5 1 17 32 5 13 3 15v8l-4 16-7 16-11 17-10 13-9 11-9 10-7 8-6 7h-60v-12l4-50 4-27 4-17 8-20 7-10 7-8 12-8 14-6 24-7z" fill="#111111"/>
<path transform="translate(355,523)" d="m0 0h1l-1 11-3 20v95l-2 15-4 13-5 10-9 11-10 8-13 8-18 8-18 6h-7l-12-25-6-18-2-9-1-9v-11l3-14 8-16 11-14 17-17 11-9 11-10 8-7 19-19 9-11 10-13z" fill="#111111"/>
<path transform="translate(411,428)" d="m0 0h6l1 2-3 9-7 5-2 4 1 12-4 7-2 7-1 54-1 27-2 20 1 13 3 6 5 4 5 2h8l6-3 5-10 1-4 1-14 2-3 10-5 1-1h6l4 7v27l3 8 6 5h10l5-5 2-5v-14l-3-12-2-6v-5h7l9 6 4 6 6 17 2 2 5-1 6-2 2-5 2-8-3-12v-4l4-2 15-2 1-1-1-12-8-16-8-13-3-5 1-4 7 9 7 10 7 6 5 10 2 8v18l-3 12-6 12-8 10-7 9-9 17-5 6-10 5-12 4-12 1-23-1-5 4-4 9v15l4 17v11l-4 6-6 4h-6l-5-5v-7l7-25 4-16 1-13-3-7-7-9-8-5-12-4-7-5-4-6-3-14v-24l3-35 1-82 4-12 5-6z" fill="#111111"/>
<path transform="translate(542,364)" d="m0 0h10l24 4 20 5 11 7 5 6v6l-8 13-8 9-8 5-23 3h-14l-11-3-18-2-74-1-8-2-10-6 1-3 16-9 26-12 17-6 22-7 24-6z" fill="#111111"/>
<path transform="translate(280,243)" d="m0 0h9l9 3 24 16 11 9 10 11 9 15 12 23 10 21 8 21 6 22-1 2-2 1-4 1-12-6-19-19-7-8-9-10-19-19-10-7-16-10-10-13-7-10-4-11v-12l3-12 6-7z" fill="#111111"/>
<path transform="translate(419,435)" d="m0 0 6 2 11 6 18 11 33 22 16 12 7 6 2 5 2 9 8 17 9 15 3 10-2 3-15 3-4 1 3 16-1 9-4 5-6 1-5-12-4-10v-2l-4-2-4-3-5-2h-10l-1 3 6 21 1 3v12l-4 7-3 1h-7l-5-4-3-7v-13l1-2v-7l-3-10-5-5-6 1-8 5h-4l-1-20-2-10-1-2v-6l-6 1-1 4v20l3 11 5 7v10l-2 11-5 8-4 2-9-2-6-4-3-7v-17l3-30 1-60 2-9 2-3h2l15 34 5 15 4 19 4 8 4 4 8 1 3-1 2-5v-19l-7-21-8-17-9-12-5-6-9-6-6-3-3-5v-5l3-3h7l5 6 13 19 6 9 9 17 11 26 8 14 9 9 11 7 9 2 9-1 5-3 3-5v-16l-5-12-10-14-9-10-7-8-12-11-13-10-24-15-14-6-3-3z" fill="#111111"/>
<path transform="translate(266,392)" d="m0 0h14l29 5 25 6 24 6 13 5 5 6-1 4-1-4-6-1-11-5-17-5-20-4-7-1h-50l-15 3-12 6-7 8-1 4v8l6 7 9 5 6 2h22l19-5 15-6 16-5 18-4 20-3h12l2 2v6l-3 4h-7l-10-3h-17l-21 5-16 6-13 7-10 8-3 5v7l3 4h14l12-6 11-7 17-8 26-9 3-1 2 1-2 6-12 13-12 11-25 25-7 8-9 10-9 11-8 6-7 1-10-4-4-6 1-6 6-10 8-9 12-3 12-7 10-9 2-3v-6l-6 1-15 10-10 8-4 2-5-15-1-2h-8l-11 6-8 11-7 5-10 1-5-3-1-1v-9l5-7 10-7 17-9 1-3-2-5-6-2-7-2h-11l-10 4-5 3-5-1v-10l6-7 11-7v-6l-9-12 2-4 8-4 15-4 12-3 16-8z" fill="#111111"/>
<path transform="translate(569,346)" d="m0 0h29l22 2 24 5 27 9 24 11 19 11 18 13 12 11 7 10 1 3v8l-7 8-4 3-9 3-19 3h-12l2-14v-20l-3-13 1-2h-2l1-4v-7l-5-5-15-8-18-6-19-3-14 1-5 3-3 5-2 13-3 24-4 8-3 2h-14l2-4 8-7 7-11 3-10-5-9-6-5-13-5-25-5-6-1h-24l-23 5-35 11-21 9-19 10-10 7-6-1 1-4 14-12 15-10 16-8 17-7 16-5 15-4 25-5z" fill="#111111"/>
<path transform="translate(164,163)" d="m0 0h19l14 2 20 5 16 5 21 9 16 8 15 9 16 12 13 11 18 18 11 14 14 19 12 20 12 23 8 20 4 14 2 9 1 9v22l-11-3v-2l-3-1 5-1 3 3-2-11-4-15-7-20-11-24-8-16-9-17-11-14-9-8-17-12-10-6-9-4-15-1-8 7-5 16v12l3 5-4-2-9-10-2-3 6-12 9-10 11-13 2-7-1-8-6-8-10-8-15-9-16-8-13-3-7 2-5 8-15 4-13 7-8 7-3 7-5-3-9-12-6-11-1-3v-11l4-6 7-4z" fill="#111111"/>
<path transform="translate(226,291)" d="m0 0h8l10 2 16 6 7 1 13 8 11 7 12 13 6 7 3 2v2l4 2 10 10 11 9 10 8 1 3-9-3-16-10-9-8-10-15-8-7-6-3-9 1v6l4 5 8 7 3-1-5-6-7-6v-3h6l9 6 7 9 7 11 8 6 11 7 12 6 14 8 5 4 1 3h-9l-17-4-15-5-29-7-12-5-4-4 1-5 8-5 10-3 1-4-17 7-5 4 1 9 7 5 15 5 29 7 23 7 16 2 1-3 4 1 5 6v2l10 5 1-4-4-1-5-4 1-3 9 3 2 2h5v29l-3 3-4-10-8-10-9-6-8-4-24-8-22-5-8-1h-17l-14 1-8 1-3-9-2-4-21-4-8-5-2-4 8-5 15-8 9-8v-7l-7-6-12-2-16-1-10-4-5-6-1-3v-12l4-5z" fill="#111111"/>
<path transform="translate(417,406)" d="m0 0 4 1 4 3 10 4v2h-9l-3-2v-3h-2v8l22 1 3 8 8 6 9 6 16 8 21 14 12 6 6 2h8l4-4-1-9-4-8v-5h13l4 1 5-2-1-7-4-3-4-1h-11l-13 1h-14l-14-3-14-5-1-2h19l34 3h11l17-1 8 3 19 5 6 5 16 8 8 6 5 6 1 2v7l-7 8-7 3h-7l-8-4-10-9-8-7-5-2h-10l-3 3-1 3v8l4 14 3 7v7l-6 1-10-5-12-9h-8l-5 6-5-5-9-12-2-4-4-2-7-7-11-9-15-10-16-9-13-5-13-3h-7l-9 3-4 5-1 2h-2l-2 5-2-1 4-10 10-11 9-11z" fill="#111111"/>
<path transform="translate(384,442)" d="m0 0 1 3-10 18-8 21-8 26-5 9-10 13-8 10-12 9-13 6-15 4-18 5-7 1h-11l-17-5-16-8-5-5v-2l-3-1 4-1h14l19 8 3 1h8l14-7 11-9 14-16 9-11 12-12 7-8 20-20h2l1-3 8-7 10-9 7-8z" fill="#111111"/>
<path transform="translate(391,450)" d="m0 0h1l1 24v60l-4 43v10l2 14 5 10 9 6 13 5 9 7 5 7-1 3-13-2-23-11-10-8-8-9-8-17-10-28-2-3-1-7h-1l1-13 4-23 4-10 8-15 6-10 8-19 3-11z" fill="#111111"/>
<path transform="translate(426,448)" d="m0 0 6 1 14 8 17 12 24 22 9 10 11 15 6 12 2 6-1 9-5 6-3 2h-8l-9-4-10-7-8-9-7-12-11-26-9-17-9-14-8-11z" fill="#111111"/>
<path transform="translate(273,406)" d="m0 0h30l26 3 17 4 14 5 1 3-27 4-22 6-20 7-15 5-6 1h-21l-10-3-8-6-2-8 3-7 8-7 11-4z" fill="#111111"/>
<path transform="translate(164,217)" d="m0 0 5 5 8 11 7 15 3 11v25l-2 14-1 12v23l4 13 6 10 20 26 6 8v3l-4 1-4-6-12-12-10-11-11-15-8-16-7-19-4-17-4-26v-22l3-18 3-10z" fill="#111111"/>
<path transform="translate(164,163)" d="m0 0h19l14 2 20 5 16 5 21 9 16 8 15 9 16 12 5 4-1 2-8-6-9-2-10-6 1 5-4-2-11-9-15-9-16-8-13-3-7 2-5 8-15 4-13 7-8 7-3 7-5-3-9-12-6-11-1-3v-11l4-6 7-4z" fill="#111111"/>
<path transform="translate(667,362)" d="m0 0 6 1 20 9 18 10 17 12 13 11 8 10 3 6v8l-7 8-4 3-9 3-19 3h-12l2-14v-20l-3-13 1-2h-2l1-4v-7l-5-5-15-8-7-3-1-5-5-2z" fill="#111111"/>
<path transform="translate(629,368)" d="m0 0h24l19 5 16 7 9 6 2 5-7 6-9 3-7-1-10-5-14-8-9-2-7 1-5 3-4 10 1 8 4 5 15 6 10 5 3 4v6l-5 7-3 1h-10l-8-4-14-11-5-2 3-10 2-12 2-20 3-9z" fill="#111111"/>
<path transform="translate(217,181)" d="m0 0 8 1 13 5 18 10 11 8 8 8 4 8-2 5-4 7-12 12-8 12-2 7h-8l-19-3-9-4-6-7v-8l4-5 7-2 7 2 11 6 7 2h8l5-4 4-10-1-7-3-5-10-6-21-6-6-4-6-7-4-9 5-5z" fill="#111111"/>
<path transform="translate(448,422)" d="m0 0 12 2 28 9 7 2h22l7-2h12l7 4 2 5-3 1-4-1h-13l-3 3 3 10 3 6-1 5-3 2-9-1-17-9-16-11-22-12-12-9z" fill="#111111"/>
<path transform="translate(329,241)" d="m0 0 3 1 11 14 14 19 12 20 12 23 8 20 4 14 2 9 1 9v22l-11-3v-2l-3-1 5-1 3 3-2-11-4-15-7-20-11-24-8-16-9-17-11-14-4-4 1-2 10 10h2l-8-14-2-9-8-9z" fill="#111111"/>
<path transform="translate(284,328)" d="m0 0h6l9 6 7 9 7 11 8 6 11 7 12 6 14 8 5 4 1 3h-9l-17-4-15-5-29-7-12-5-4-4 1-5 8-5 10-3 1-4-3-1v-3l-4-5-7-6z" fill="#111111"/>
<path transform="translate(287,387)" d="m0 0h21l21 3 20 5 17 7 13 8 7 8 4 9-4 4-4 9-11 11-8 7-16 16-8 7-10 10-7 8-9 9-9 11-12 14-5 5h-2v-5l8-8 9-11 9-10 9-9 7-8 3-3h2l1-3 8-7 17-17 5-8 2-8 8-5h2l1-22-10-5-21-6-45-10-20-3 2-2z" fill="#111111"/>
<path transform="translate(690,451)" d="m0 0h5l-2 7-9 10-7 8-3 3h-2l-2 4-13 11-18 12-8 5-13 3-3-1 6-6h2l2-4 9-10 7-8 11-13 10-9 10-6 13-5z" fill="#111111"/>
<path transform="translate(334,436)" d="m0 0h22l4 2-1 3-33 12-17 8-14 9-9 3h-6l-4-3v-6l5-6 10-7 17-8 22-6z" fill="#111111"/>
<path transform="translate(412,461)" d="m0 0 4 2 10 8 8 9 6 11 7 14 5 18 1 13-2 7-6 1-6-5-4-11-4-19-7-18-9-21-3-6z" fill="#111111"/>
<path transform="translate(411,428)" d="m0 0h6l1 2-3 9-7 5-2 4 1 12-4 7-2 7-1 54-1 27-2 20h-2l-1 7h-1v-27l2-24 1-82 4-12 5-6z" fill="#111111"/>
<path transform="translate(437,640)" d="m0 0 2 1h7l-2 5-3 7v15l4 17v11l-4 6-6 4h-6l-5-5v-7l7-25 4-16z" fill="#111111"/>
<path transform="translate(208,538)" d="m0 0 8 4v2l-6 4-9 14-10 18-10 14-3 2h-6l-4-6-1-3v-7l3-5 7-6 17-9 8-9z" fill="#111111"/>
<path transform="translate(493,360)" d="m0 0h6l-3 2-11 4-6 9 3 2-12 5-27 13-14 9-5 1-2-1 1-4 14-12 15-10 16-8 17-7z" fill="#111111"/>
<path transform="translate(287,387)" d="m0 0h21l21 3 20 5 17 7 12 7-1 5-11-5-21-6-45-10-20-3 2-2z" fill="#111111"/>
<path transform="translate(418,428)" d="m0 0 9 1 14 5 19 10 17 12 14 12 8 7 5 6v2l-5-2-14-10-28-18-23-14-15-8z" fill="#111111"/>
<path transform="translate(252,393)" d="m0 0 4 1-9 5-24 5-12 6-3 3-2 3-8 4-1 2h-3l-2 4-3 3-4 10h-1v-6l8-16 11-12 9-6 7-3 27-1z" fill="#111111"/>
<path transform="translate(516,504)" d="m0 0 5 5 10 14 7 6 5 10 2 8v18l-3 12-6 12h-2l6-15 2-8v-5l-5-2-1-3-1-14-8-16-8-13-3-5z" fill="#111111"/>
<path transform="translate(379,391)" d="m0 0 10 3 2 2h5v29l-3 3-4-10-8-10-9-6-8-4v-2l7 1 8 1 5 4 3 1 1-4-4-1-5-4z" fill="#111111"/>
<path transform="translate(411,444)" d="m0 0h7l5 6 13 19 6 9 2 6-3 1-10-13-5-6-9-6-6-3-3-5v-5z" fill="#111111"/>
<path transform="translate(417,406)" d="m0 0 4 1 4 3 10 4v2h-9l-3-2v-3h-2v8l4 1v3 1l-16 2-6 3-4 6h-2l-2 5-2-1 4-10 10-11 9-11z" fill="#111111"/>
<path transform="translate(377,410)" d="m0 0 4 2 6 8 3 7-4 4-4 9-7 7h-3l-1-10 4-1z" fill="#111111"/>
<path transform="translate(304,331)" d="m0 0 8 6v2l4 2 10 10 11 9 10 8 1 3-9-3-16-10-9-8-10-15z" fill="#111111"/>
<path transform="translate(411,428)" d="m0 0h6l1 2-3 9-7 5-2 4-2 7-1-4h-3v2h2l-1 7h-3l-1-4 2-7-1-1 1-9 6-8z" fill="#111111"/>
<path transform="translate(324,490)" d="m0 0 2 1-1 5-12 12-9 11-12 14-5 5h-2v-5l8-8 9-11 9-10 9-9z" fill="#111111"/>
<path transform="translate(401,396)" d="m0 0 8 1 6 5-2 4-13 15-2 1 2-24z" fill="#111111"/>
<path transform="translate(386,447)" d="m0 0h2l-1 8-11 26-7 13-1-4 6-18 11-24z" fill="#111111"/>
<path transform="translate(302,322)" d="m0 0 5 2 6 4 6 5 6 7 2 1v2l4 2 8 8-1 2-6-2-30-30z" fill="#111111"/>
<path transform="translate(586,421)" d="m0 0h2v2h8l10-1-3 5-13 1-3-3h-2l-4 4-14-2-3-3 16-1z" fill="#111111"/>
<path transform="translate(395,540)" d="m0 0 3 3v21l-1 11h-2l-1 7h-1v-27z" fill="#111111"/>
<path transform="translate(496,420)" d="m0 0h29l13 2 1 2h-26l-15-2z" fill="#111111"/>
<path transform="translate(516,504)" d="m0 0 5 5 10 14 5 5h-2v2l-4 1-11-18-3-5z" fill="#111111"/>
<path transform="translate(370,438)" d="m0 0h1l1 9 2 1-5 4-2 2v-2l-7 6-2-1 5-8 2-8z" fill="#111111"/>
<path transform="translate(425,530)" d="m0 0h2l1 2v27h-2l-2-4v-22z" fill="#111111"/>
<path transform="translate(301,477)" d="m0 0h3l-2 4-11 9-9 5-6 1v-2l14-9z" fill="#111111"/>
<path transform="translate(252,393)" d="m0 0 4 1-9 5-10 2-7-1 1-2-2-2 17-1z" fill="#111111"/>
<path transform="translate(267,285)" d="m0 0 4 4 9 13v2l-5-2-7-6-1-9z" fill="#111111"/>
<path transform="translate(252,272)" d="m0 0 5 2 7 9 1 5-2 2-5-6-6-10z" fill="#111111"/>
<path transform="translate(587,421)" d="m0 0 1 2h8l10-1-3 5-13 1-5-5z" fill="#111111"/>
<path transform="translate(395,540)" d="m0 0 3 3v13l-2 6-2-3v-15z" fill="#111111"/>
<path transform="translate(437,471)" d="m0 0 3 4 4 7v2l-3 1-7-9 1-4z" fill="#111111"/>
<path transform="translate(379,391)" d="m0 0 10 3 2 4-3 1-4-1-5-4z" fill="#111111"/>
<path transform="translate(542,566)" d="m0 0h2l-1 8-4 10-3 5h-2l6-15z" fill="#111111"/>
<path transform="translate(422,409)" d="m0 0 12 4 1 3h-9l-3-2v-3l-2-1z" fill="#111111"/>
<path transform="translate(510,623)" d="m0 0 1 3-4 5-10 5-7 1 2-2 11-5 6-5z" fill="#111111"/>
<path transform="translate(384,442)" d="m0 0 1 3-5 8-6 2 2-5z" fill="#111111"/>
<path transform="translate(301,477)" d="m0 0h3l-2 4-8 6-1-4z" fill="#111111"/>
<path transform="translate(444,483)" d="m0 0 3 4 1 5-3 1-4-8z" fill="#111111"/>
<path transform="translate(391,427)" d="m0 0 2 1-2 6-5 8-1-3 5-11z" fill="#111111"/>
<path transform="translate(602,422)" d="m0 0 4 1-3 4h-6l1-4z" fill="#111111"/>
<path transform="translate(371,407)" d="m0 0 5 1 2 2-2 4-6-3z" fill="#111111"/>
<path transform="translate(394,566)" d="m0 0 2 1v8h-1l-1 7h-1v-14z" fill="#111111"/>
<path transform="translate(334,482)" d="m0 0 2 2-10 10-1-5 6-3z" fill="#111111"/>
<path transform="translate(252,393)" d="m0 0 4 1-7 4h-6l3-3z" fill="#111111"/>
</svg>
