<?xml version="1.0" encoding="UTF-8"?>
<!DOCTYPE svg PUBLIC "-//W3C//DTD SVG 1.1//EN" "http://www.w3.org/Graphics/SVG/1.1/DTD/svg11.dtd">
<svg xmlns="http://www.w3.org/2000/svg" version="1.1" width="300px" height="168px" style="shape-rendering:geometricPrecision; text-rendering:geometricPrecision; image-rendering:optimizeQuality; fill-rule:evenodd; clip-rule:evenodd" xmlns:xlink="http://www.w3.org/1999/xlink">
<g><path style="opacity:1" fill="#fefefe" d="M -0.5,-0.5 C 99.5,-0.5 199.5,-0.5 299.5,-0.5C 299.5,55.5 299.5,111.5 299.5,167.5C 199.5,167.5 99.5,167.5 -0.5,167.5C -0.5,111.5 -0.5,55.5 -0.5,-0.5 Z"/></g>
<g><path style="opacity:1" fill="#b6b6b6" d="M 257.5,11.5 C 259.103,11.3118 260.437,11.8118 261.5,13C 257.768,12.812 254.934,14.312 253,17.5C 253.46,14.8539 254.96,12.8539 257.5,11.5 Z"/></g>
<g><path style="opacity:1" fill="#e3e3e3" d="M 273.5,39.5 C 272.911,37.6481 272.244,35.8148 271.5,34C 272.406,32.3005 272.739,30.4672 272.5,28.5C 273.242,25.1908 274.909,22.3575 277.5,20C 279.923,19.6517 280.923,20.8183 280.5,23.5C 279.695,29.6097 277.361,34.9431 273.5,39.5 Z"/></g>
<g><path style="opacity:1" fill="#969696" d="M 252.5,24.5 C 256.512,27.5835 256.179,28.7501 251.5,28C 252.167,27.6667 252.833,27.3333 253.5,27C 252.748,26.3292 252.414,25.4959 252.5,24.5 Z"/></g>
<g><path style="opacity:1" fill="#acacac" d="M 267.5,28.5 C 264.264,27.1614 261.764,28.1614 260,31.5C 260.456,27.8977 262.623,26.231 266.5,26.5C 266.343,25.1266 266.51,23.7932 267,22.5C 267.495,24.4727 267.662,26.4727 267.5,28.5 Z"/></g>
<g><path style="opacity:1" fill="#a4a4a4" d="M 267.5,28.5 C 268.478,28.811 269.145,29.4777 269.5,30.5C 268.754,31.7362 268.421,33.0695 268.5,34.5C 267.539,32.7354 267.205,30.7354 267.5,28.5 Z"/></g>
<g><path style="opacity:1" fill="#a1a1a1" d="M 246.5,47.5 C 245.182,43.2593 245.348,38.926 247,34.5C 246.804,38.7909 246.637,43.1243 246.5,47.5 Z"/></g>
<g><path style="opacity:1" fill="#a1a1a1" d="M 272.5,28.5 C 272.739,30.4672 272.406,32.3005 271.5,34C 272.244,35.8148 272.911,37.6481 273.5,39.5C 272.034,40.347 271.2,41.6803 271,43.5C 267.255,42.703 263.421,42.203 259.5,42C 263.211,41.8253 266.878,41.3253 270.5,40.5C 269.253,38.677 268.586,36.677 268.5,34.5C 269.222,34.9175 269.722,35.5842 270,36.5C 270.546,33.6209 271.379,30.9542 272.5,28.5 Z"/></g>
<g><path style="opacity:1" fill="#a5a5a5" d="M 246.5,47.5 C 252.676,50.8534 255.176,48.8534 254,41.5C 254.648,44.5513 255.481,46.8846 256.5,48.5C 260.753,49.014 264.587,48.014 268,45.5C 267.137,47.8514 265.303,49.518 262.5,50.5C 259.532,49.6319 256.699,49.2986 254,49.5C 252.139,51.3479 249.972,51.3479 247.5,49.5C 246.702,49.0431 246.369,48.3764 246.5,47.5 Z"/></g>
<g><path style="opacity:1" fill="#b9b9b9" d="M 235.5,61.5 C 237.379,61.3932 237.712,61.8932 236.5,63C 233.047,65.2401 229.381,66.5735 225.5,67C 229.056,65.3924 232.389,63.5591 235.5,61.5 Z"/></g>
<g><path style="opacity:1" fill="#a9a9a9" d="M 202.5,73.5 C 204.199,73.3398 205.866,73.5065 207.5,74C 202.935,75.645 198.269,76.3117 193.5,76C 196.742,75.5939 199.742,74.7605 202.5,73.5 Z"/></g>
<g><path style="opacity:1" fill="#a9a9a9" d="M 185.5,76.5 C 187.857,76.3367 190.19,76.5034 192.5,77C 187.905,78.3929 183.239,78.7262 178.5,78C 181.036,77.8138 183.369,77.3138 185.5,76.5 Z"/></g>
<g><path style="opacity:1" fill="#c4c4c4" d="M 160.5,78.5 C 165.844,78.334 171.177,78.5006 176.5,79C 150.46,80.6362 124.46,82.3029 98.5,84C 119.185,80.7215 139.852,78.8881 160.5,78.5 Z"/></g>
<g><path style="opacity:1" fill="#b8b8b8" d="M 92.5,84.5 C 94.1992,84.3398 95.8659,84.5065 97.5,85C 91.4903,86.6714 85.4903,88.0047 79.5,89C 83.8927,87.3287 88.226,85.8287 92.5,84.5 Z"/></g>
<g><path style="opacity:1" fill="#ebebeb" d="M 50.5,101.5 C 48.8543,101.542 47.1877,101.542 45.5,101.5C 47.6667,102.948 50,104.115 52.5,105C 51.6195,105.708 50.9528,106.542 50.5,107.5C 50.1583,108.338 49.4916,108.672 48.5,108.5C 43.8376,108.962 39.1709,109.462 34.5,110C 31.5547,110.139 29.2214,111.306 27.5,113.5C 26.8333,113.167 26.1667,112.833 25.5,112.5C 26.6082,110.219 27.9415,108.052 29.5,106C 38.871,99.9962 48.2043,93.9962 57.5,88C 62.4504,87.2714 63.9504,89.1047 62,93.5C 58.5448,96.8026 54.7114,99.4693 50.5,101.5 Z"/></g>
<g><path style="opacity:1" fill="#bbbbbb" d="M 67.5,99.5 C 67.5394,98.4168 67.8728,97.4168 68.5,96.5C 67.9747,95.8076 67.3081,95.3076 66.5,95C 68.212,93.2491 70.212,92.5825 72.5,93C 71.8333,93.3333 71.1667,93.6667 70.5,94C 72.0441,94.2896 73.3774,94.9563 74.5,96C 73.5399,97.4194 72.7065,98.9194 72,100.5C 70.7052,99.1588 70.2052,97.8255 70.5,96.5C 69.7124,97.7701 68.7124,98.7701 67.5,99.5 Z"/></g>
<g><path style="opacity:1" fill="#a1a1a1" d="M 85.5,101.5 C 83.8333,101.5 82.1667,101.5 80.5,101.5C 82.1429,99.2919 81.8096,97.4585 79.5,96C 81.4146,93.9187 83.0813,94.0854 84.5,96.5C 83.8333,97.5 83.1667,98.5 82.5,99.5C 83.6016,100.176 84.6016,100.842 85.5,101.5 Z"/></g>
<g><path style="opacity:1" fill="#ababab" d="M 67.5,99.5 C 67.5,100.5 67.5,101.5 67.5,102.5C 69.36,101.929 71.0267,101.929 72.5,102.5C 71.7659,103.708 71.4326,105.041 71.5,106.5C 72.8333,106.5 74.1667,106.5 75.5,106.5C 73.917,108.863 72.0836,108.863 70,106.5C 69.6174,107.056 69.1174,107.389 68.5,107.5C 68.4142,108.496 68.7476,109.329 69.5,110C 64.8166,114.013 59.4833,116.346 53.5,117C 58.6649,114.03 61.3316,109.53 61.5,103.5C 59.7839,103.371 58.1172,103.038 56.5,102.5C 58.0592,100.376 60.0592,98.709 62.5,97.5C 62.1493,99.2028 62.816,100.87 64.5,102.5C 65.735,101.66 66.735,100.66 67.5,99.5 Z"/></g>
<g><path style="opacity:1" fill="#f8f8f8" d="M 72.5,102.5 C 74.5273,102.338 76.5273,102.505 78.5,103C 77.2899,104.039 76.2899,105.206 75.5,106.5C 74.1667,106.5 72.8333,106.5 71.5,106.5C 71.4326,105.041 71.7659,103.708 72.5,102.5 Z"/></g>
<g><path style="opacity:1" fill="#b1b1b1" d="M 50.5,101.5 C 52.2646,102.461 54.2646,102.795 56.5,102.5C 55.0892,104.914 53.0892,106.581 50.5,107.5C 50.9528,106.542 51.6195,105.708 52.5,105C 50,104.115 47.6667,102.948 45.5,101.5C 47.1877,101.542 48.8543,101.542 50.5,101.5 Z"/></g>
<g><path style="opacity:1" fill="#fcfcfc" d="M 68.5,107.5 C 67.3579,109.972 65.3579,110.972 62.5,110.5C 62.8906,105.846 65.2239,103.846 69.5,104.5C 68.8728,105.417 68.5394,106.417 68.5,107.5 Z"/></g>
<g><path style="opacity:1" fill="#a4a4a4" d="M 80.5,101.5 C 79.1501,102.824 79.3167,103.824 81,104.5C 82.9812,104.101 84.4812,103.101 85.5,101.5C 87.5492,101.706 87.8825,102.539 86.5,104C 82.9686,105.406 79.3019,106.24 75.5,106.5C 76.2899,105.206 77.2899,104.039 78.5,103C 76.5273,102.505 74.5273,102.338 72.5,102.5C 73.1451,101.188 74.1451,100.188 75.5,99.5C 76.6956,99.8457 76.6956,100.346 75.5,101C 77.1341,101.494 78.8008,101.66 80.5,101.5 Z"/></g>
<g><path style="opacity:1" fill="#f9f9f9" d="M 80.5,101.5 C 82.1667,101.5 83.8333,101.5 85.5,101.5C 84.4812,103.101 82.9812,104.101 81,104.5C 79.3167,103.824 79.1501,102.824 80.5,101.5 Z"/></g>
<g><path style="opacity:1" fill="#b4b4b4" d="M 48.5,108.5 C 41.5164,109.807 34.5164,111.473 27.5,113.5C 29.2214,111.306 31.5547,110.139 34.5,110C 39.1709,109.462 43.8376,108.962 48.5,108.5 Z"/></g>
<g><path style="opacity:1" fill="#9a9a9a" d="M 25.5,112.5 C 26.1667,112.833 26.8333,113.167 27.5,113.5C 26.6993,115.042 26.366,116.708 26.5,118.5C 25.2223,118.782 24.2223,119.449 23.5,120.5C 24.6392,117.996 25.3059,115.33 25.5,112.5 Z"/></g>
<g><path style="opacity:1" fill="#a8a8a8" d="M 48.5,113.5 C 50.8418,113.775 50.8418,114.608 48.5,116C 49.6226,117.044 50.9559,117.71 52.5,118C 50.3502,119.59 48.0168,120.257 45.5,120C 46.6721,119.581 47.6721,118.915 48.5,118C 47.2721,116.51 47.2721,115.01 48.5,113.5 Z"/></g>
<g><path style="opacity:1" fill="#dbdbdb" d="M 26.5,118.5 C 30.4403,121.903 35.1069,123.403 40.5,123C 38.1116,123.303 35.9449,124.137 34,125.5C 30.3939,124.237 26.8939,124.57 23.5,126.5C 22.1667,126.5 21.5,125.833 21.5,124.5C 21.6596,122.847 22.3263,121.514 23.5,120.5C 24.2223,119.449 25.2223,118.782 26.5,118.5 Z"/></g>
<g><path style="opacity:1" fill="#b3b3b3" d="M 21.5,124.5 C 21.5,125.833 22.1667,126.5 23.5,126.5C 19.1392,130.205 15.4726,134.539 12.5,139.5C 11.432,137.813 11.5986,136.146 13,134.5C 16.4487,131.562 19.282,128.229 21.5,124.5 Z"/></g>
</svg>
